<?xml version="1.0" standalone="no"?>
<!DOCTYPE svg PUBLIC "-//W3C//DTD SVG 20010904//EN"
 "http://www.w3.org/TR/2001/REC-SVG-20010904/DTD/svg10.dtd">
<svg version="1.0" xmlns="http://www.w3.org/2000/svg"
 width="193.000000pt" height="193.000000pt" viewBox="0 0 193.000000 193.000000"
 preserveAspectRatio="xMidYMid meet">
<metadata>
Created by potrace 1.11, written by Peter Selinger 2001-2013
</metadata>
<g transform="translate(0.000000,193.000000) scale(0.100000,-0.100000)"
fill="#000000" stroke="none">
<path d="M894 1908 c-2 -3 -12 -5 -21 -4 -47 7 -243 -55 -243 -77 0 -5 -3 -8
-6 -4 -7 7 -24 -6 -75 -58 -22 -22 -50 -51 -64 -65 -27 -27 -64 -105 -73 -154
-9 -46 -7 -279 3 -301 14 -34 14 -45 -1 -45 -27 0 -35 -50 -20 -125 4 -16 9
-48 12 -70 4 -22 11 -46 17 -53 5 -7 7 -15 4 -18 -10 -10 36 -42 52 -36 9 3
12 0 9 -9 -4 -11 -27 -14 -101 -14 -54 1 -97 -2 -97 -6 0 -4 -9 -9 -20 -12
-19 -5 -20 -11 -15 -149 8 -244 9 -253 19 -260 8 -5 7 -8 0 -8 -8 0 -9 -11 -5
-32 6 -28 2 -37 -31 -71 -20 -21 -40 -48 -44 -60 -4 -12 -11 -25 -16 -28 -5
-3 -11 -12 -12 -20 -7 -39 -31 -105 -41 -111 -5 -4 -6 -8 -1 -8 5 0 3 -7 -4
-15 -10 -12 -10 -15 1 -15 10 0 10 -3 1 -12 -7 -7 -12 -24 -12 -40 l0 -27 851
0 c687 0 854 3 865 13 9 10 10 16 1 25 -6 6 -8 11 -4 11 4 0 1 13 -8 30 -8 16
-15 32 -14 35 2 14 -15 72 -25 85 -7 8 -21 36 -30 63 -10 26 -21 45 -25 42 -5
-2 -13 7 -19 20 -7 14 -16 25 -21 25 -11 0 -9 19 3 39 7 11 6 12 -5 6 -12 -8
-12 -6 0 8 10 13 10 17 1 17 -10 0 -10 3 -1 14 9 10 9 16 1 21 -7 4 -8 11 -2
18 5 7 9 19 9 27 1 24 14 253 17 275 3 27 -15 78 -31 90 -8 6 -61 10 -119 10
-69 -1 -103 2 -101 9 2 6 9 12 15 12 7 1 16 2 22 3 17 2 46 78 57 149 14 96
10 135 -14 148 -13 6 -20 14 -16 18 4 3 8 12 9 19 2 7 5 23 9 37 10 45 9 254
-2 275 -6 11 -11 24 -11 28 0 19 -37 107 -45 107 -4 0 -5 5 -2 10 3 6 2 10 -2
10 -5 0 -17 14 -27 31 -10 17 -21 28 -24 25 -3 -4 -14 6 -24 21 -10 16 -18 24
-18 20 0 -7 -11 0 -45 31 -8 7 -15 11 -15 7 0 -3 -11 2 -25 11 -14 9 -25 13
-25 9 0 -4 -6 -2 -13 4 -8 6 -17 8 -20 4 -4 -3 -7 -1 -7 6 0 7 -4 9 -10 6 -5
-3 -10 0 -10 7 0 9 -3 9 -10 -2 -6 -9 -10 -10 -10 -3 0 11 -54 23 -120 29 -14
1 -25 2 -25 4 0 6 -147 4 -151 -2z"/>
</g>
</svg>
